# xmcd CD database file
#
# Track frame offsets:
#	150
#	20949
#	38455
#	58326
#	75289
#	95501
#	111769
#	132167
#	151409
#	167794
#	187296
#	209247
#
# Disc length: 3053 seconds
#
# Revision: 0
# Processed by: cddbd v1.5.2PL0 Copyright (c) Steve Scherf et al.
# Submitted via: CDex 1.50
#
DISCID=a90beb0c
DTITLE=Beth Hart - My California
DYEAR=2010
DGENRE=Blues
TTITLE0=My California
TTITLE1=Life Is Calling
TTITLE2=Happiness...any day now
TTITLE3=Love Is The Hardest
TTITLE4=Bad Love Is Good Enough
TTITLE5=Drive
TTITLE6=Sister Heroine (Featuring Slash)
TTITLE7=Take It Easy On Me
TTITLE8=Like You (and everyone else)
TTITLE9=Everybody Is Sober
TTITLE10=Weight Of The World
TTITLE11=Oh Me Oh My (Bonus Track)
EXTD=YEAR: 2010
EXTT0=
EXTT1=
EXTT2=
EXTT3=
EXTT4=
EXTT5=
EXTT6=
EXTT7=
EXTT8=
EXTT9=
EXTT10=
EXTT11=
PLAYORDER=
